<svg xmlns="http://www.w3.org/2000/svg" viewBox="0 0 155.91 155.91"><defs><style>.cls-1{fill:none;}.cls-2{fill:#fff;opacity:0.7;}</style></defs><g id="Ebene_1" data-name="Ebene 1"><path class="cls-1" d="M0,0V155.9H155.91V0ZM42.18,141a23.83,23.83,0,0,1-14.59,4.79c-6.48,0-12.91-1.57-18.34-6l6-10.06c3.34,2.74,7.3,5.23,11.87,5.23,3.13,0,6.21-.94,6.21-4.32s-5-3.69-7.85-4.43c-6.2-1.58-13.91-3.66-13.91-14.87,0-9.74,7.43-16.11,17.73-16.11,5.18,0,11.78,2.39,16.35,4.8l-5.7,9.49a19.91,19.91,0,0,0-8.87-2.7c-2.45,0-5.6.69-5.6,3.36s3.11,3.34,5.93,4.09c0,0,3.47.76,5,1.24,6.38,2.1,11.14,4.34,11.14,12.83C47.49,133.14,46.27,137.78,42.18,141Zm29.28-12.55h-7v15.87H50.77V96.22H72.06c12.24,0,15.44,8.86,15.44,15.87C87.5,121.51,83.58,128.47,71.46,128.47Zm39.38,15.87H90.52V96.22h20.32c13.37,0,21.5,10.5,21.5,24S124.15,144.34,110.84,144.34Z" transform="translate(0 0)"/><path class="cls-2" d="M0,0V155.91H155.91V0ZM42.18,141a23.83,23.83,0,0,1-14.59,4.79c-6.48,0-12.91-1.57-18.34-6l6-10.06c3.34,2.74,7.3,5.23,11.87,5.23,3.13,0,6.21-.94,6.21-4.32s-5-3.69-7.85-4.43c-6.2-1.58-13.91-3.66-13.91-14.87,0-9.74,7.43-16.11,17.73-16.11,5.18,0,11.78,2.39,16.35,4.8l-5.7,9.49a19.91,19.91,0,0,0-8.87-2.7c-2.45,0-5.6.69-5.6,3.36s3.11,3.34,5.93,4.09c0,0,3.47.76,5,1.24,6.38,2.1,11.14,4.34,11.14,12.83C47.49,133.14,46.27,137.78,42.18,141Zm29.28-12.55h-7v15.87H50.77V96.22H72.06c12.24,0,15.44,8.86,15.44,15.87C87.5,121.51,83.58,128.47,71.46,128.47Zm39.38,15.87H90.52V96.22h20.32c13.37,0,21.5,10.5,21.5,24S124.15,144.34,110.84,144.34Z" transform="translate(0 0)"/><path class="cls-2" d="M65.42,106.85H64.36V118.1h1.06c4.55,0,9,.26,9-5.63,0-5.61-4.15-5.62-9-5.62" transform="translate(0 0)"/><path class="cls-2" d="M105.93,107.64h-1.62v25.7h1.49c7.45,0,13-4.38,13-13.12,0-7.34-4.88-12.58-12.9-12.58" transform="translate(0 0)"/></g></svg>