<?xml version="1.0" encoding="UTF-8" standalone="no"?>
<!DOCTYPE svg PUBLIC "-//W3C//DTD SVG 1.1//EN" "http://www.w3.org/Graphics/SVG/1.1/DTD/svg11.dtd">
<svg width="100%" height="100%" viewBox="0 0 256 256" version="1.1" xmlns="http://www.w3.org/2000/svg" xmlns:xlink="http://www.w3.org/1999/xlink" xml:space="preserve" xmlns:serif="http://www.serif.com/" style="fill-rule:evenodd;clip-rule:evenodd;stroke-linejoin:round;stroke-miterlimit:2;">
    <g id="Ebene1" transform="matrix(0.642321,0,0,0.642321,-307.814,-309.741)">
        <g>
            <circle cx="678.499" cy="681.499" r="198.499" style="fill:white;"/>
        </g>
    </g>
    <g transform="matrix(0.452228,0,0,0.452228,31.1335,64.5854)">
        <g id="SPD_BERLIN_Logo_2023_cmyk.eps">
            <g>
                <g>
                    <path d="M282.212,6.324L352.382,6.324C398.548,6.324 426.614,43.165 426.614,90.502C426.614,137.85 398.33,175.116 352.382,175.116L282.212,175.116L282.212,6.324ZM329.828,136.536L334.965,136.536C360.684,136.536 379.955,121.146 379.955,90.502C379.955,64.765 363.107,46.382 335.415,46.382L329.828,46.382L329.828,136.536Z" style="fill:rgb(227,6,19);"/>
                    <path d="M145.298,5.973L218.819,5.973C261.081,5.973 272.111,37.058 272.111,61.624C272.111,94.666 258.584,119.085 216.744,119.085L192.638,119.085L192.638,174.765L145.298,174.765L145.298,5.973ZM192.218,82.696L195.889,82.696C211.578,82.696 227.034,83.617 227.034,62.969C227.034,43.283 212.681,43.269 195.889,43.269L192.218,43.269L192.218,82.696Z" style="fill:rgb(227,6,19);"/>
                    <path d="M107.36,53.205C98.305,47.257 83.661,43.75 76.738,43.75C68.263,43.75 57.407,46.16 57.407,55.543C57.407,65.364 68.132,67.235 77.885,69.88C77.885,69.88 89.858,72.539 94.967,74.235C116.997,81.586 133.455,89.463 133.455,119.231C133.455,135.979 129.216,152.259 115.081,163.642C101.192,174.808 82.602,180.421 64.709,180.421C42.344,180.421 20.138,174.911 1.417,159.376L22.098,124.098C33.621,133.699 47.279,142.424 63.053,142.424C73.894,142.424 84.517,139.134 84.517,127.297C84.517,115.022 67.32,114.35 57.407,111.778C36.001,106.225 9.384,98.918 9.384,59.606C9.384,25.439 35.043,3.109 70.585,3.109C88.479,3.109 111.279,11.453 127.054,19.945L107.36,53.205Z" style="fill:rgb(227,6,19);"/>
                    <path d="M376.094,281.195L358.237,281.195L337.792,247.805C334.306,242.255 331.699,237.148 329.745,232.36L329.41,232.36C330.062,239.096 330.608,250.518 330.608,261.512L330.608,281.195L314.284,281.195L314.284,207.783L333.76,207.783L352.69,238.777C356.282,244.329 358.783,249.33 360.632,254.009L360.967,254.009C360.315,246.829 359.769,236.279 359.769,225.178L359.769,207.783L376.094,207.783L376.094,281.195Z" style="fill:rgb(227,6,19);"/>
                    <rect x="282.182" y="207.783" width="16.957" height="73.412" style="fill:rgb(227,6,19);"/>
                    <path d="M274.539,281.195L235.358,281.195L235.358,207.783L252.333,207.783L252.333,266.404L274.539,266.404" style="fill:rgb(227,6,19);"/>
                    <path d="M228.578,281.195L208.01,281.195L192.021,253.018L189.203,253.018L189.203,281.195L172.228,281.195L172.228,207.783C172.228,207.783 182.672,207.232 195.402,207.232C213.031,207.232 223.471,213.652 223.471,229.308C223.471,240.41 217.273,247.04 208.785,249.879C208.785,249.879 211.832,254.116 214.103,257.93L228.578,281.195ZM189.203,221.364L189.203,240.41L193.976,240.517C201.16,240.517 205.616,237.041 205.616,230.729C205.616,225.07 202.254,221.153 194.416,221.153C191.915,221.153 189.203,221.364 189.203,221.364Z" style="fill:rgb(227,6,19);"/>
                    <path d="M160.113,281.195L116.918,281.195L116.918,207.783L160.113,207.783L160.113,222.022L133.894,222.022L133.894,236.598L157.823,236.598L157.823,250.412L133.894,250.412L133.894,266.618L160.113,266.618" style="fill:rgb(227,6,19);"/>
                    <path d="M51.938,281.195L51.938,207.889C51.938,207.889 64.44,207.232 76.08,207.232C94.147,207.232 103.604,213.759 103.604,226.384C103.604,232.908 100.24,239.096 93.918,241.934L93.918,242.04C101.332,244.329 106.104,250.305 106.104,258.143C106.104,270.218 96.208,281.426 75.428,281.426L51.938,281.195ZM68.895,220.94L68.895,237.358C70.322,237.467 72.066,237.467 74.337,237.467C82.279,237.467 85.765,233.991 85.765,228.778C85.765,223.882 82.615,220.603 75.111,220.603C72.822,220.603 70.746,220.834 68.895,220.94ZM68.895,250.09L68.895,267.612C70.322,267.823 73.579,267.931 75.868,267.931C83.916,267.931 87.72,264.331 87.72,258.799C87.72,253.566 84.022,249.986 74.882,249.986C73.914,249.986 70.199,249.986 68.895,250.09Z" style="fill:rgb(227,6,19);"/>
                </g>
            </g>
        </g>
    </g>
</svg>
