<svg id="Watermark" xmlns="http://www.w3.org/2000/svg" viewBox="0 0 154.94 72.64"><defs><style>.cls-1{fill:#fff;opacity:0.7;}</style></defs><path class="cls-1" d="M154.3.64V72H82.94V.64H154.3m.64-.64H82.3V72.64h72.64V0Z" transform="translate(0 0)"/><path class="cls-1" d="M49.05,50h-.54V62H49c3.37,0,6.26-1.92,6.26-5.71C55.25,52,52.68,50,49.05,50Z" transform="translate(0 0)"/><path class="cls-1" d="M0,0V72.64H72.64V0ZM19.09,65.9c-1.7,1.44-4.33,1.91-6.53,1.91A13.31,13.31,0,0,1,4.2,65L7,60.32a9.63,9.63,0,0,0,5.65,2.45c1.32,0,2.8-.53,2.8-2.06s-2.56-1.7-3.77-2.05c-3.75-.94-6.39-2.36-6.39-6.57,0-5.11,3.59-7.85,7.94-7.85a16.09,16.09,0,0,1,7.94,2.25L18.47,51A7.85,7.85,0,0,0,14,49.65c-1,0-2.24.48-2.24,1.69s1.55,1.42,2.53,1.73l2.36.59c1.66.54,5.39,1.29,5.39,6.13A7.4,7.4,0,0,1,19.09,65.9ZM33,59.71H29.83v7.4H23.59V44.73H33.3c5,0,7.38,2.82,7.38,7.79C40.68,57.82,37.4,59.71,33,59.71Zm18.39,7.4H42.07V44.72h9.54c6.73,0,9.93,5.24,9.93,11.52C61.54,62.78,57.11,67.11,51.38,67.11Z" transform="translate(0 0)"/><path class="cls-1" d="M30.2,49.72h-.37V54.9h.37c2,0,4.41,0,4.41-2.62S32.39,49.72,30.2,49.72Z" transform="translate(0 0)"/><path class="cls-1" d="M101,42.06c.49.41,1,.68,1.61,1.14.44.31,1.5.8,1.42,1.35-.15,1-1.44-.32-2-.67a17.67,17.67,0,0,1-1.55-1.08c-.62.23-.31.91-1,.87-1.26-.07.21-1.2.21-1.34,0-.49-1.06-.44-1.08-.88a.6.6,0,0,1,.2-.6c.74-.05.92.47,1.41.67.13-.61,1.27-1.53,1.42-.61.07.47-.61.65-.67,1.15" transform="translate(0 0)"/><path class="cls-1" d="M103.46,55.66c-.2.32-.5.68-.41.88,1.87-.49,3.89-.83,5.86-1.21-.48-2.08-.79-4.33-1.41-6.27-1.23,2.18-2.76,4.54-4,6.6m6.19,3.1c-3,.42-5.71,1.16-8.62,1.69-.63,1.25-1.1,2.54-1.75,4-.48,1.06-1.11,3.19-2.42,3.3A1.75,1.75,0,0,1,95,66.24c-.08-1.08.71-2.15,1.15-3.17a28,28,0,0,1,1.34-3,1.79,1.79,0,0,1,1.35-2.76,118.7,118.7,0,0,1,6.6-11A12.69,12.69,0,0,1,108,43.14a1.18,1.18,0,0,1,1-.07c1.29.47,1.46,3.67,1.82,5.52.76,4,1.77,8.5,2.56,12.12a20.2,20.2,0,0,0,.87,2.83c.31.87.94,2.18.74,3a1.78,1.78,0,0,1-1.61,1.28c-1.6,0-2.29-2.7-2.63-3.84a43.36,43.36,0,0,1-1.15-5.25" transform="translate(0 0)"/><path class="cls-1" d="M98.54,45c-.17.25-.46.2-.81.14,0,.64-.33,1.55.14,2,.66-.6.95-1.56,2-1.62,2.45-.13,1.6,4-.47,3.71-.34-1,1.5-1.24,1-2.63C99.17,45.9,99,47.84,98.07,48c-1.85.27-1.53-2.67-.88-3.83.62.12,1.46,0,1.35.87" transform="translate(0 0)"/><path class="cls-1" d="M96.79,49.94c-1.35-.26-2,.81-1.62,2.15.7.27,1.3.64,2,.95a1.66,1.66,0,0,0-.34-3.1m1.08,4.11c-.6.07-1.18-.41-1.75-.68-1.13-.52-2.19-1-3.37-1.61-.46-.23-1.39-.48-1-1.22,1,0,1.62.8,2.49,1.08-.53-3.34,4.47-3.2,4.71-.33.11,1.28-.84,1.6-1.07,2.76" transform="translate(0 0)"/><path class="cls-1" d="M96.79,56.27A51.47,51.47,0,0,1,90.46,53c0-.19.11-.68.4-.61a17.57,17.57,0,0,1,3.24,1.62c.9.45,3,1.21,3,1.81,0,.11-.23.32-.27.41" transform="translate(0 0)"/><path class="cls-1" d="M120.83,61.79a8.64,8.64,0,0,0,2.43-2c.57-.57,1.68-2.12,2.36-2.15a1,1,0,0,1,.94.74c.13.85-.77,1.37-1.28,1.88a9.91,9.91,0,0,1-1.62,1.55c.52.77,1.1,1.5,1.82,2.49.52.71,1.7,1.94,1.42,2.9a1.06,1.06,0,0,1-1,.54c-.79-.06-1.38-1.76-1.82-2.36-.64-.88-1.24-1.52-1.75-2.36-.54.38-1.09.75-1.61,1.15-.27,1.18.46,4.09-1.35,3.5-1-.31-.43-3.19-.34-4.51.22-3.12.06-6.37.07-9.36a1,1,0,0,1,1.62-.14c.35.63.18,2.79.13,3.77-.07,1.6,0,3.16-.07,4.38" transform="translate(0 0)"/><path class="cls-1" d="M138.21,54.25c1.37-.34,1.85,1.71.54,2-1.13.21-1.94-1.6-.54-2" transform="translate(0 0)"/><path class="cls-1" d="M132.15,58.16c1-.06,2.31-.37,2.89.26.67,1.87-1.68,1.28-2.82,1.55,0,1.49.21,4.27.2,6.06,0,1.43-.83,2.59-1.82,1.35.08-2.5,0-4.93-.14-7.41-1-.21-2.44.13-2.69-.67-.47-1.53,1.38-1.28,2.69-1.14-.07-1.31-.44-3.54,1.08-3.1.83.23.7,2,.61,3.1" transform="translate(0 0)"/><path class="cls-1" d="M92.68,59.43a12.17,12.17,0,0,0-.13-2.76,1.55,1.55,0,0,0,.13,2.76m.74.34a1.9,1.9,0,0,0,1.55-2c0-.71-.36-.73-.07-1,.67-.66,1,.81.81,1.61a2.34,2.34,0,0,1-2.42,2.09A2.92,2.92,0,0,1,90.86,58c0-.93,1-2.61,2.16-2,.85.51.33,2.47.4,3.7" transform="translate(0 0)"/><path class="cls-1" d="M145.08,64.69c.53-1.11,1-2.24,1.48-3.44.35-.89.68-3.11,1.69-3.16,1.63-.09.6,2,.2,3-.59,1.47-1.25,2.82-1.89,4.31-.29.68-.63,2.21-1.28,2.29-1.16.13-1.84-2.68-2.42-4.24-.26-.68-.58-1.49-1-2.43s-1.39-3,.21-3c1,0,1.36,2.29,1.68,3.17.45,1.24.83,2.16,1.28,3.5" transform="translate(0 0)"/><path class="cls-1" d="M138.14,58.36c1.53-.21.81,2.8.81,4.44V65c0,1.15.12,2.91-1.28,2.29-.93-.42-.42-4.87-.34-6.74,0-1-.24-2.08.81-2.22" transform="translate(0 0)"/><path class="cls-1" d="M88.77,59.64c-.08,1-1.1,1.42-1,2.56,0,.48.25.91.68.94.75,0,1.32-1.6,1.55-1.82a2,2,0,0,1,3.3,1.62,3.64,3.64,0,0,1-1.62,3c-.39.2-1.28.37-1.28-.27s.8-.43,1.21-.74c.69-.52,1.52-3.17-.13-3.23-1.39,0-1.93,3.51-3.77,2.29A2.49,2.49,0,0,1,87,62c0-1.1.91-2.78,1.81-2.35" transform="translate(0 0)"/></svg>